<svg xmlns="http://www.w3.org/2000/svg" xmlns:xlink="http://www.w3.org/1999/xlink" width="500" zoomAndPan="magnify" viewBox="0 0 375 374.999991" height="500" preserveAspectRatio="xMidYMid meet" version="1.0"><defs><clipPath id="89b6731123"><path d="M 10.167969 62 L 364.917969 62 L 364.917969 313 L 10.167969 313 Z M 10.167969 62 " clip-rule="nonzero"/></clipPath></defs><g clip-path="url(#89b6731123)"><path fill="#ffffff" d="M 364.917969 87.117188 L 364.917969 156.753906 C 363.804688 167.011719 358.972656 174.222656 350.421875 178.390625 C 347.8125 179.660156 344.910156 180.457031 341.714844 180.78125 C 338.832031 181.070312 335.789062 181.109375 332.582031 180.898438 C 332.425781 180.886719 332.289062 180.933594 332.171875 181.042969 C 332.058594 181.152344 332 181.285156 332 181.445312 C 332.078125 195.011719 332.042969 208.34375 331.894531 221.4375 C 331.84375 225.929688 331.496094 229.28125 330.84375 231.492188 C 329.851562 234.886719 328.230469 237.917969 325.984375 240.589844 C 322.019531 245.320312 316.988281 248.238281 310.902344 249.339844 C 309.476562 249.597656 307.484375 249.726562 304.929688 249.726562 C 302.980469 249.726562 300.980469 249.726562 298.929688 249.726562 C 298.746094 249.726562 298.59375 249.792969 298.464844 249.921875 C 298.335938 250.050781 298.269531 250.203125 298.269531 250.386719 C 298.21875 261.972656 298.246094 273.644531 298.355469 285.410156 C 298.417969 292.972656 295.996094 299.308594 291.085938 304.421875 C 287.292969 308.367188 282.792969 310.832031 277.589844 311.808594 C 275.992188 312.109375 271.378906 312.261719 263.753906 312.261719 C 210.875 312.261719 158 312.261719 105.121094 312.261719 C 101.871094 312.261719 99.550781 312.148438 98.15625 311.925781 C 95.707031 311.535156 93.472656 310.824219 91.449219 309.792969 C 81.675781 304.804688 76.800781 296.621094 76.824219 285.238281 C 76.84375 273.75 76.855469 262.109375 76.855469 250.316406 C 76.855469 250.15625 76.800781 250.015625 76.683594 249.902344 C 76.570312 249.785156 76.429688 249.726562 76.269531 249.726562 C 74.246094 249.726562 72.183594 249.726562 70.082031 249.726562 C 67.5 249.726562 65.445312 249.578125 63.921875 249.277344 C 56.707031 247.863281 51.101562 244.074219 47.105469 237.90625 C 45.710938 235.753906 44.667969 233.3125 43.972656 230.578125 C 43.496094 228.699219 43.242188 226.085938 43.203125 222.742188 C 43.046875 209.605469 43.011719 195.839844 43.09375 181.453125 C 43.09375 181.328125 43.050781 181.21875 42.964844 181.128906 C 42.878906 181.039062 42.773438 180.992188 42.648438 180.988281 C 41.476562 180.945312 40.175781 180.960938 38.75 181.03125 C 26.789062 181.578125 18.085938 176.691406 12.636719 166.371094 C 11.3125 163.859375 10.492188 160.683594 10.167969 156.84375 L 10.167969 86.863281 C 10.695312 80.664062 12.933594 75.410156 16.882812 71.097656 C 20.101562 67.578125 23.984375 65.160156 28.53125 63.839844 C 30.746094 63.195312 34.039062 62.871094 38.410156 62.859375 C 104.371094 62.78125 144.265625 62.769531 158.097656 62.828125 C 159.59375 62.832031 160.925781 63.308594 162.09375 64.253906 C 163.148438 65.105469 163.910156 66.210938 164.386719 67.578125 C 165.183594 69.875 164.804688 72.03125 163.25 74.042969 C 161.894531 75.804688 159.886719 76.683594 157.230469 76.683594 C 117.421875 76.683594 77.613281 76.683594 37.808594 76.683594 C 34.890625 76.683594 32.683594 76.996094 31.175781 77.621094 C 28.257812 78.828125 26.203125 80.878906 25.007812 83.765625 C 24.355469 85.359375 24.027344 87.839844 24.027344 91.214844 C 24.027344 110.988281 24.027344 130.761719 24.027344 150.535156 C 24.027344 154.578125 24.09375 156.957031 24.234375 157.667969 C 24.71875 160.152344 25.933594 162.300781 27.878906 164.117188 C 30.039062 166.132812 32.683594 167.136719 35.804688 167.136719 C 136.589844 167.136719 237.375 167.113281 338.160156 167.0625 C 340.640625 167.0625 342.582031 166.757812 343.980469 166.15625 C 346.886719 164.90625 348.914062 162.859375 350.070312 160.007812 C 350.730469 158.382812 351.0625 155.679688 351.0625 151.894531 C 351.0625 131.441406 351.0625 110.992188 351.0625 90.542969 C 351.0625 87.453125 350.59375 85.007812 349.660156 83.210938 C 348.007812 80.023438 345.648438 78 342.585938 77.140625 C 341.492188 76.835938 338.578125 76.683594 333.851562 76.683594 C 296.511719 76.683594 259.175781 76.683594 221.839844 76.683594 C 220.519531 76.683594 219.371094 76.636719 218.398438 76.546875 C 217.136719 76.421875 216.050781 76.078125 215.148438 75.519531 C 213.195312 74.308594 212.132812 72.585938 211.960938 70.34375 C 211.820312 68.445312 212.296875 66.769531 213.378906 65.3125 C 214.617188 63.65625 216.339844 62.828125 218.550781 62.828125 C 256.953125 62.828125 295.359375 62.828125 333.765625 62.828125 C 339.980469 62.828125 344.316406 63.183594 346.773438 63.902344 C 351.195312 65.195312 355.007812 67.59375 358.203125 71.097656 C 362.195312 75.46875 364.433594 80.808594 364.917969 87.117188 Z M 96.132812 181.4375 C 95.484375 181.121094 94.800781 180.960938 94.074219 180.960938 L 57.527344 180.960938 C 57.363281 180.960938 57.226562 181.019531 57.109375 181.132812 C 56.996094 181.25 56.9375 181.386719 56.9375 181.550781 C 56.914062 195.695312 56.929688 209.6875 56.980469 223.53125 C 57 229.183594 59.40625 232.992188 64.191406 234.949219 C 65.628906 235.535156 67.5625 235.828125 69.992188 235.828125 C 148 235.875 226.007812 235.890625 304.015625 235.871094 C 307.140625 235.871094 309.476562 235.546875 311.011719 234.902344 C 313.789062 233.730469 315.785156 231.757812 317 228.976562 C 317.644531 227.5 317.984375 225.347656 318.019531 222.519531 C 318.164062 209.148438 318.207031 195.542969 318.140625 181.703125 C 318.140625 181.496094 318.070312 181.324219 317.925781 181.179688 C 317.78125 181.035156 317.605469 180.960938 317.402344 180.960938 L 112.074219 181.003906 C 111.882812 181.003906 111.726562 181.074219 111.601562 181.222656 C 111.476562 181.367188 111.429688 181.535156 111.460938 181.722656 C 111.992188 185.238281 111.585938 188.523438 110.246094 191.582031 C 109.148438 194.09375 107.804688 196.46875 106.214844 198.707031 C 104.296875 201.402344 102.363281 204.09375 100.40625 206.777344 C 100.074219 207.234375 100.191406 207.441406 100.761719 207.394531 C 102.386719 207.265625 104.121094 207.210938 105.957031 207.234375 C 108.222656 207.261719 110.023438 207.972656 111.367188 209.367188 C 112.621094 210.667969 113.257812 212.316406 113.28125 214.316406 C 113.308594 216.824219 112.234375 218.730469 110.058594 220.039062 C 109.035156 220.652344 107.617188 220.984375 105.804688 221.035156 C 96.179688 221.300781 90.050781 221.335938 87.421875 221.148438 C 82.757812 220.808594 80.230469 218.539062 79.84375 214.328125 C 79.742188 213.214844 79.917969 212.136719 80.378906 211.085938 C 80.824219 210.0625 81.394531 209.097656 82.089844 208.191406 C 87.042969 201.71875 91.8125 195.109375 96.390625 188.359375 C 97.015625 187.433594 97.449219 186.421875 97.683594 185.332031 C 98.089844 183.4375 97.574219 182.140625 96.132812 181.4375 Z M 91.046875 249.875 C 90.96875 249.875 90.898438 249.902344 90.839844 249.960938 C 90.785156 250.015625 90.757812 250.085938 90.757812 250.164062 C 90.714844 261.113281 90.699219 272.117188 90.707031 283.179688 C 90.710938 286.96875 91.050781 289.683594 91.726562 291.320312 C 92.894531 294.175781 94.941406 296.21875 97.863281 297.453125 C 99.296875 298.058594 101.304688 298.359375 103.886719 298.359375 C 159.351562 298.40625 214.816406 298.421875 270.277344 298.402344 C 273.347656 298.402344 275.652344 298.082031 277.195312 297.445312 C 280.128906 296.242188 282.1875 294.183594 283.375 291.28125 C 284.039062 289.664062 284.371094 287.089844 284.371094 283.554688 C 284.371094 272.78125 284.371094 261.730469 284.371094 250.402344 C 284.371094 250.226562 284.3125 250.078125 284.1875 249.953125 C 284.066406 249.832031 283.921875 249.769531 283.75 249.769531 L 142.410156 249.859375 C 141.597656 249.859375 141.472656 250.152344 142.035156 250.738281 C 145.578125 254.445312 147.382812 259.015625 147.445312 264.453125 C 147.511719 269.757812 145.8125 274.386719 142.355469 278.335938 C 138.859375 282.328125 134.460938 284.6875 129.167969 285.410156 C 122.804688 286.28125 117.144531 284.316406 112.1875 279.523438 C 108.933594 276.375 106.929688 272.5625 106.171875 268.082031 C 105.691406 265.246094 106.441406 263.011719 108.425781 261.375 C 111.019531 259.242188 113.792969 259.164062 116.746094 261.148438 C 118.234375 262.140625 119.269531 263.863281 119.855469 266.316406 C 120.464844 268.84375 121.890625 270.484375 124.132812 271.242188 C 126.140625 271.925781 128.082031 271.800781 129.957031 270.867188 C 131.664062 270.019531 132.78125 268.648438 133.3125 266.757812 C 133.789062 265.082031 133.691406 263.445312 133.019531 261.847656 C 132.074219 259.589844 130.304688 258.25 127.707031 257.828125 C 125.773438 257.519531 124.792969 257.363281 124.777344 257.355469 C 121.867188 256.410156 120.179688 254.046875 119.710938 250.261719 C 119.691406 250.109375 119.625 249.984375 119.511719 249.882812 C 119.398438 249.78125 119.265625 249.734375 119.117188 249.734375 Z M 91.046875 249.875 " fill-opacity="1" fill-rule="nonzero"/></g><path fill="#ffffff" d="M 196.140625 69.671875 C 196.140625 70.121094 196.097656 70.570312 196.011719 71.011719 C 195.921875 71.453125 195.792969 71.882812 195.621094 72.300781 C 195.445312 72.714844 195.234375 73.113281 194.984375 73.488281 C 194.734375 73.863281 194.449219 74.207031 194.128906 74.527344 C 193.8125 74.847656 193.464844 75.128906 193.089844 75.382812 C 192.714844 75.632812 192.320312 75.84375 191.902344 76.015625 C 191.488281 76.1875 191.058594 76.320312 190.613281 76.40625 C 190.171875 76.496094 189.726562 76.539062 189.277344 76.539062 C 188.824219 76.539062 188.378906 76.496094 187.9375 76.40625 C 187.492188 76.320312 187.0625 76.1875 186.648438 76.015625 C 186.230469 75.84375 185.835938 75.632812 185.460938 75.382812 C 185.085938 75.128906 184.738281 74.847656 184.421875 74.527344 C 184.101562 74.207031 183.816406 73.863281 183.566406 73.488281 C 183.316406 73.113281 183.105469 72.714844 182.933594 72.300781 C 182.757812 71.882812 182.628906 71.453125 182.542969 71.011719 C 182.453125 70.570312 182.410156 70.121094 182.410156 69.671875 C 182.410156 69.222656 182.453125 68.773438 182.542969 68.332031 C 182.628906 67.890625 182.757812 67.460938 182.933594 67.042969 C 183.105469 66.628906 183.316406 66.230469 183.566406 65.855469 C 183.816406 65.484375 184.101562 65.136719 184.421875 64.816406 C 184.738281 64.5 185.085938 64.214844 185.460938 63.964844 C 185.835938 63.710938 186.230469 63.5 186.648438 63.328125 C 187.0625 63.15625 187.492188 63.027344 187.9375 62.9375 C 188.378906 62.851562 188.824219 62.804688 189.277344 62.804688 C 189.726562 62.804688 190.171875 62.851562 190.613281 62.9375 C 191.058594 63.027344 191.488281 63.15625 191.902344 63.328125 C 192.320312 63.5 192.714844 63.710938 193.089844 63.964844 C 193.464844 64.214844 193.8125 64.5 194.128906 64.816406 C 194.449219 65.136719 194.734375 65.484375 194.984375 65.855469 C 195.234375 66.230469 195.445312 66.628906 195.621094 67.042969 C 195.792969 67.460938 195.921875 67.890625 196.011719 68.332031 C 196.097656 68.773438 196.140625 69.222656 196.140625 69.671875 Z M 196.140625 69.671875 " fill-opacity="1" fill-rule="nonzero"/><path fill="#ffffff" d="M 63.6875 104.074219 C 63.097656 104.035156 62.410156 104.042969 61.613281 104.09375 C 58.601562 104.289062 56.363281 103.410156 54.894531 101.460938 C 53.5 99.605469 53.101562 97.535156 53.707031 95.253906 C 54.164062 93.519531 55.195312 92.195312 56.796875 91.277344 C 57.867188 90.671875 59.402344 90.328125 61.414062 90.242188 C 63.957031 90.144531 66.5 90.140625 69.042969 90.222656 C 71.832031 90.308594 73.828125 90.78125 75.035156 91.636719 C 76.953125 92.996094 77.917969 95.15625 77.9375 98.121094 C 78.070312 119.273438 78.070312 135.304688 77.929688 146.21875 C 77.902344 148.328125 77.574219 149.949219 76.945312 151.085938 C 75.648438 153.4375 73.640625 154.542969 70.917969 154.410156 C 68.820312 154.3125 67.191406 153.59375 66.027344 152.25 C 64.816406 150.859375 64.210938 148.996094 64.210938 146.664062 C 64.210938 132.867188 64.210938 118.855469 64.210938 104.632812 C 64.210938 104.484375 64.160156 104.359375 64.058594 104.25 C 63.957031 104.140625 63.832031 104.082031 63.6875 104.074219 Z M 63.6875 104.074219 " fill-opacity="1" fill-rule="nonzero"/><path fill="#ffffff" d="M 119.710938 97.683594 L 313.578125 97.683594 C 314.03125 97.683594 314.484375 97.730469 314.929688 97.816406 C 315.375 97.90625 315.808594 98.039062 316.230469 98.210938 C 316.652344 98.386719 317.050781 98.601562 317.429688 98.855469 C 317.808594 99.105469 318.160156 99.394531 318.480469 99.714844 C 318.804688 100.039062 319.089844 100.386719 319.34375 100.765625 C 319.597656 101.144531 319.808594 101.546875 319.984375 101.964844 C 320.160156 102.386719 320.289062 102.820312 320.378906 103.265625 C 320.46875 103.714844 320.511719 104.164062 320.511719 104.621094 L 320.511719 104.730469 C 320.511719 105.1875 320.46875 105.636719 320.378906 106.085938 C 320.289062 106.53125 320.160156 106.964844 319.984375 107.386719 C 319.808594 107.804688 319.597656 108.207031 319.34375 108.585938 C 319.089844 108.964844 318.804688 109.3125 318.480469 109.636719 C 318.160156 109.957031 317.808594 110.246094 317.429688 110.5 C 317.050781 110.75 316.652344 110.964844 316.230469 111.140625 C 315.808594 111.3125 315.375 111.445312 314.929688 111.535156 C 314.484375 111.621094 314.03125 111.667969 313.578125 111.667969 L 119.710938 111.667969 C 119.253906 111.667969 118.804688 111.621094 118.359375 111.535156 C 117.910156 111.445312 117.476562 111.3125 117.058594 111.140625 C 116.636719 110.964844 116.238281 110.75 115.859375 110.5 C 115.480469 110.246094 115.128906 109.957031 114.808594 109.636719 C 114.484375 109.3125 114.199219 108.964844 113.945312 108.585938 C 113.691406 108.207031 113.476562 107.804688 113.304688 107.386719 C 113.128906 106.964844 112.996094 106.53125 112.910156 106.085938 C 112.820312 105.636719 112.777344 105.1875 112.777344 104.730469 L 112.777344 104.621094 C 112.777344 104.164062 112.820312 103.714844 112.910156 103.265625 C 112.996094 102.820312 113.128906 102.386719 113.304688 101.964844 C 113.476562 101.546875 113.691406 101.144531 113.945312 100.765625 C 114.199219 100.386719 114.484375 100.039062 114.808594 99.714844 C 115.128906 99.394531 115.480469 99.105469 115.859375 98.855469 C 116.238281 98.601562 116.636719 98.386719 117.058594 98.210938 C 117.476562 98.039062 117.910156 97.90625 118.359375 97.816406 C 118.804688 97.730469 119.253906 97.683594 119.710938 97.683594 Z M 119.710938 97.683594 " fill-opacity="1" fill-rule="nonzero"/><path fill="#ffffff" d="M 119.605469 132.292969 L 258.945312 132.292969 C 259.394531 132.292969 259.839844 132.335938 260.277344 132.425781 C 260.71875 132.511719 261.148438 132.644531 261.5625 132.816406 C 261.980469 132.988281 262.375 133.199219 262.746094 133.449219 C 263.121094 133.695312 263.464844 133.980469 263.785156 134.296875 C 264.101562 134.617188 264.386719 134.960938 264.636719 135.335938 C 264.886719 135.710938 265.097656 136.105469 265.269531 136.519531 C 265.441406 136.933594 265.570312 137.363281 265.65625 137.804688 C 265.746094 138.246094 265.789062 138.691406 265.789062 139.140625 L 265.789062 139.292969 C 265.789062 139.742188 265.746094 140.1875 265.65625 140.628906 C 265.570312 141.066406 265.441406 141.496094 265.269531 141.910156 C 265.097656 142.328125 264.886719 142.722656 264.636719 143.09375 C 264.386719 143.46875 264.101562 143.816406 263.785156 144.132812 C 263.464844 144.449219 263.121094 144.734375 262.746094 144.984375 C 262.375 145.234375 261.980469 145.445312 261.5625 145.617188 C 261.148438 145.789062 260.71875 145.917969 260.277344 146.003906 C 259.839844 146.09375 259.394531 146.136719 258.945312 146.136719 L 119.605469 146.136719 C 119.15625 146.136719 118.710938 146.09375 118.273438 146.003906 C 117.832031 145.917969 117.402344 145.789062 116.988281 145.617188 C 116.574219 145.445312 116.179688 145.234375 115.804688 144.984375 C 115.429688 144.734375 115.085938 144.449219 114.765625 144.132812 C 114.449219 143.816406 114.164062 143.46875 113.914062 143.09375 C 113.664062 142.722656 113.453125 142.328125 113.28125 141.910156 C 113.109375 141.496094 112.980469 141.066406 112.894531 140.628906 C 112.804688 140.1875 112.761719 139.742188 112.761719 139.292969 L 112.761719 139.140625 C 112.761719 138.691406 112.804688 138.246094 112.894531 137.804688 C 112.980469 137.363281 113.109375 136.933594 113.28125 136.519531 C 113.453125 136.105469 113.664062 135.710938 113.914062 135.335938 C 114.164062 134.960938 114.449219 134.617188 114.765625 134.296875 C 115.085938 133.980469 115.429688 133.695312 115.804688 133.449219 C 116.179688 133.199219 116.574219 132.988281 116.988281 132.816406 C 117.402344 132.644531 117.832031 132.511719 118.273438 132.425781 C 118.710938 132.335938 119.15625 132.292969 119.605469 132.292969 Z M 119.605469 132.292969 " fill-opacity="1" fill-rule="nonzero"/><path fill="#ffffff" d="M 138.308594 199.320312 L 293.398438 199.320312 C 293.851562 199.320312 294.296875 199.367188 294.738281 199.453125 C 295.179688 199.542969 295.605469 199.671875 296.023438 199.84375 C 296.4375 200.015625 296.832031 200.226562 297.207031 200.476562 C 297.582031 200.726562 297.925781 201.011719 298.246094 201.328125 C 298.5625 201.648438 298.847656 201.992188 299.097656 202.367188 C 299.347656 202.742188 299.558594 203.136719 299.730469 203.550781 C 299.902344 203.96875 300.03125 204.394531 300.121094 204.835938 C 300.207031 205.277344 300.253906 205.726562 300.253906 206.175781 L 300.253906 206.3125 C 300.253906 206.761719 300.207031 207.207031 300.121094 207.648438 C 300.03125 208.089844 299.902344 208.519531 299.730469 208.933594 C 299.558594 209.351562 299.347656 209.746094 299.097656 210.121094 C 298.847656 210.496094 298.5625 210.839844 298.246094 211.160156 C 297.925781 211.476562 297.582031 211.761719 297.207031 212.011719 C 296.832031 212.261719 296.4375 212.472656 296.023438 212.644531 C 295.605469 212.816406 295.179688 212.945312 294.738281 213.035156 C 294.296875 213.121094 293.851562 213.164062 293.398438 213.164062 L 138.308594 213.164062 C 137.859375 213.164062 137.414062 213.121094 136.972656 213.035156 C 136.53125 212.945312 136.101562 212.816406 135.6875 212.644531 C 135.269531 212.472656 134.875 212.261719 134.5 212.011719 C 134.125 211.761719 133.78125 211.476562 133.460938 211.160156 C 133.144531 210.839844 132.859375 210.496094 132.609375 210.121094 C 132.359375 209.746094 132.148438 209.351562 131.976562 208.933594 C 131.804688 208.519531 131.675781 208.089844 131.585938 207.648438 C 131.5 207.207031 131.457031 206.761719 131.457031 206.3125 L 131.457031 206.175781 C 131.457031 205.726562 131.5 205.277344 131.585938 204.835938 C 131.675781 204.394531 131.804688 203.96875 131.976562 203.550781 C 132.148438 203.136719 132.359375 202.742188 132.609375 202.367188 C 132.859375 201.992188 133.144531 201.648438 133.460938 201.328125 C 133.78125 201.011719 134.125 200.726562 134.5 200.476562 C 134.875 200.226562 135.269531 200.015625 135.6875 199.84375 C 136.101562 199.671875 136.53125 199.542969 136.972656 199.453125 C 137.414062 199.367188 137.859375 199.320312 138.308594 199.320312 Z M 138.308594 199.320312 " fill-opacity="1" fill-rule="nonzero"/><path fill="#ffffff" d="M 168.898438 267.578125 L 262.589844 267.578125 C 263.035156 267.578125 263.480469 267.621094 263.917969 267.707031 C 264.355469 267.796875 264.785156 267.925781 265.195312 268.097656 C 265.609375 268.265625 266.003906 268.476562 266.375 268.726562 C 266.75 268.972656 267.09375 269.257812 267.410156 269.574219 C 267.726562 269.890625 268.007812 270.234375 268.257812 270.605469 C 268.503906 270.980469 268.714844 271.371094 268.886719 271.785156 C 269.058594 272.199219 269.1875 272.625 269.273438 273.066406 C 269.363281 273.503906 269.40625 273.945312 269.40625 274.394531 L 269.40625 274.601562 C 269.40625 275.050781 269.363281 275.492188 269.273438 275.933594 C 269.1875 276.371094 269.058594 276.796875 268.886719 277.210938 C 268.714844 277.625 268.503906 278.019531 268.257812 278.390625 C 268.007812 278.761719 267.726562 279.105469 267.410156 279.421875 C 267.09375 279.738281 266.75 280.023438 266.375 280.269531 C 266.003906 280.519531 265.609375 280.730469 265.195312 280.902344 C 264.785156 281.074219 264.355469 281.203125 263.917969 281.289062 C 263.480469 281.375 263.035156 281.421875 262.589844 281.421875 L 168.898438 281.421875 C 168.449219 281.421875 168.007812 281.375 167.566406 281.289062 C 167.128906 281.203125 166.703125 281.074219 166.289062 280.902344 C 165.875 280.730469 165.484375 280.519531 165.109375 280.269531 C 164.738281 280.023438 164.394531 279.738281 164.078125 279.421875 C 163.761719 279.105469 163.476562 278.761719 163.230469 278.390625 C 162.980469 278.019531 162.769531 277.625 162.597656 277.210938 C 162.429688 276.796875 162.296875 276.371094 162.210938 275.933594 C 162.125 275.492188 162.082031 275.050781 162.082031 274.601562 L 162.082031 274.394531 C 162.082031 273.945312 162.125 273.503906 162.210938 273.066406 C 162.296875 272.625 162.429688 272.199219 162.597656 271.785156 C 162.769531 271.371094 162.980469 270.980469 163.230469 270.605469 C 163.476562 270.234375 163.761719 269.890625 164.078125 269.574219 C 164.394531 269.257812 164.738281 268.972656 165.109375 268.726562 C 165.484375 268.476562 165.875 268.265625 166.289062 268.097656 C 166.703125 267.925781 167.128906 267.796875 167.566406 267.707031 C 168.007812 267.621094 168.449219 267.578125 168.898438 267.578125 Z M 168.898438 267.578125 " fill-opacity="1" fill-rule="nonzero"/></svg>