<svg id="Layer_1" data-name="Layer 1" xmlns="http://www.w3.org/2000/svg" viewBox="0 0 512 512"><defs><style>.cls-1{fill:#fff;}</style></defs><title>generateQuiz</title><path class="cls-1" d="M253.31,0h5.75A52.12,52.12,0,0,1,281.5,6.5q70.22,39.71,175.85,100.72,9.18,5.3,13.39,9.31A50.58,50.58,0,0,1,485.33,142q1.43,6,1.42,18.2V353.83a72.86,72.86,0,0,1-1.32,15.72,50.55,50.55,0,0,1-20.3,30.63q-1.47,1.05-17.23,10.12-81.36,46.84-163,93.24a68.78,68.78,0,0,1-12.4,5.84A59.66,59.66,0,0,1,258.94,512h-4.75a58.91,58.91,0,0,1-19.49-4.79q-1.92-.84-17.31-9.63-82.15-46.9-164.2-94Q32.54,391.69,27.46,370,26,363.77,26,350.38V161.68q0-13.41,1.45-19.75,4.95-21.59,24.61-32.87,82.22-47.16,164.5-94.19,16.2-9.25,17.31-9.76A59.8,59.8,0,0,1,253.31,0ZM58.14,131.15q98.55,57.19,197.76,114.63a1.23,1.23,0,0,0,1.23,0L458.21,129.07a.59.59,0,0,0,.22-.8.61.61,0,0,0-.15-.17,88.32,88.32,0,0,0-10.14-6.79Q361.76,72,275.39,22.64q-19.06-10.9-38.83.42Q150,72.67,63.39,122.11a73,73,0,0,0-8.82,6,.63.63,0,0,0-.1.89.65.65,0,0,0,.18.15Zm181.2,124.74L45.17,143.3a.34.34,0,0,0-.47.13l0,.07a30,30,0,0,0-1.28,8.5q-.7,96.63-.2,193.25.09,16.85.71,19.95Q46.41,377.82,57.68,386a111,111,0,0,0,9.57,6q85.22,48.76,170.4,97.62a44.45,44.45,0,0,0,9.48,4.09.51.51,0,0,0,.65-.35.41.41,0,0,0,0-.16l-.06-231.52a1.38,1.38,0,0,0-.65-1.16Q242.83,257.9,239.34,255.89ZM460.08,382.08a34,34,0,0,0,8.52-15q1.15-4.41,1.15-16.74V159.7c0-.08,0-1.21.06-3.4a42.57,42.57,0,0,0-1.52-12.37.64.64,0,0,0-.8-.44.35.35,0,0,0-.14.06l-201.81,117a1.12,1.12,0,0,0-.54.95V493.37a.39.39,0,0,0,.37.39l.12,0a45.72,45.72,0,0,0,10.05-4.38l2.58-1.54q87.39-49.76,174.52-100a30.6,30.6,0,0,0,3.94-2.59A35.1,35.1,0,0,0,460.08,382.08Z"/><path class="cls-1" d="M290.48,132.08c.09,16.46-15.1,29.89-33.91,30s-34.14-13.17-34.23-29.63,15.1-29.89,33.91-30S290.39,115.62,290.48,132.08Zm-17.15,0c0-7-7.64-12.63-17-12.58s-16.89,5.76-16.85,12.76h0c0,7,7.64,12.63,17,12.58s16.89-5.76,16.85-12.76Z"/><path class="cls-1" d="M113.25,249.59c-10.22,10.11-28.9,7.8-41.73-5.16h0c-12.83-13-14.94-31.67-4.73-41.78h0c10.22-10.11,28.9-7.8,41.73,5.16h0c12.83,13,14.94,31.67,4.73,41.78ZM101.1,237.32c3.47-3.45,1.32-11.25-4.82-17.43S82.36,211.51,78.89,215s-1.33,11.25,4.81,17.43S97.62,240.77,101.1,237.32Z"/><path class="cls-1" d="M399.63,249.66c-10.24-10.06-8.19-28.75,4.58-41.74s31.41-15.37,41.66-5.3,8.19,28.75-4.58,41.74S409.88,259.73,399.63,249.66Zm12.16-12.34c3.48,3.43,11.25,1.18,17.36-5s8.25-14,4.78-17.43-11.25-1.18-17.36,5S408.32,233.89,411.79,237.32Z"/><path class="cls-1" d="M224.22,317.81c-10.2,10.13-28.88,7.86-41.73-5.08h0c-12.85-12.93-15-31.63-4.79-41.76s28.88-7.86,41.73,5.08h0C232.28,289,234.42,307.68,224.22,317.81ZM212,305.59c3.48-3.44,1.35-11.24-4.76-17.41h0c-6.11-6.18-13.89-8.39-17.36-4.95h0c-3.48,3.44-1.35,11.24,4.76,17.41h0c6.11,6.18,13.89,8.39,17.36,4.95Z"/><path class="cls-1" d="M348.44,343.53c-10.24-10.07-8.2-28.76,4.57-41.74s31.41-15.36,41.65-5.3h0c10.24,10.07,8.2,28.76-4.57,41.74s-31.41,15.36-41.65,5.3Zm12.17-12.33c3.49,3.43,11.27,1.18,17.37-5s8.22-14,4.73-17.45h0c-3.49-3.43-11.27-1.18-17.37,5s-8.22,14-4.73,17.45Z"/><path class="cls-1" d="M113.29,369c-10.2,10.13-28.89,7.85-41.74-5.09s-15-31.64-4.8-41.77,28.89-7.85,41.74,5.09S123.49,358.89,113.29,369Zm-12.22-12.25c3.48-3.45,1.35-11.25-4.77-17.43h0c-6.11-6.18-13.89-8.39-17.37-4.95s-1.35,11.25,4.77,17.43h0C89.81,358,97.59,360.21,101.07,356.77Z"/><path class="cls-1" d="M224.23,437.28c-10.2,10.13-28.89,7.85-41.74-5.09s-15-31.64-4.8-41.77,28.89-7.85,41.74,5.09S234.43,427.15,224.23,437.28ZM212,425.08c3.47-3.44,1.32-11.25-4.81-17.44s-13.92-8.43-17.39-5h0c-3.47,3.44-1.32,11.25,4.81,17.44s13.92,8.43,17.39,5Z"/><path class="cls-1" d="M297.23,437.39c-10.23-10.06-8.18-28.75,4.58-41.74s31.42-15.36,41.66-5.3h0c10.23,10.06,8.18,28.75-4.58,41.74s-31.42,15.36-41.66,5.3Zm12.17-12.3c3.48,3.42,11.26,1.15,17.37-5.06s8.23-14,4.75-17.46-11.26-1.15-17.37,5.06S305.92,421.66,309.4,425.09Z"/></svg>