<svg xmlns="http://www.w3.org/2000/svg" xmlns:xlink="http://www.w3.org/1999/xlink" width="500" zoomAndPan="magnify" viewBox="0 0 375 374.999991" height="500" preserveAspectRatio="xMidYMid meet" version="1.0"><path fill="#ffffff" d="M 52.734375 349.21875 C 45.546875 349.21875 39.257812 346.523438 33.867188 341.132812 C 28.476562 335.742188 25.78125 329.453125 25.78125 322.265625 L 25.78125 52.734375 C 25.78125 45.546875 28.476562 39.257812 33.867188 33.867188 C 39.257812 28.476562 45.546875 25.78125 52.734375 25.78125 L 183.457031 25.78125 L 183.457031 52.734375 L 52.734375 52.734375 L 52.734375 322.265625 L 183.457031 322.265625 L 183.457031 349.21875 Z M 271.054688 266.113281 L 251.738281 246.796875 L 297.558594 200.976562 L 140.332031 200.976562 L 140.332031 174.023438 L 296.660156 174.023438 L 250.839844 128.203125 L 270.15625 108.886719 L 349.21875 187.949219 Z M 271.054688 266.113281 " fill-opacity="1" fill-rule="nonzero"/></svg>