<svg id="Layer_1" data-name="Layer 1" xmlns="http://www.w3.org/2000/svg" viewBox="0 0 512 512"><defs><style>.cls-1{fill:#fff;}</style></defs><title>module</title><path class="cls-1" d="M512,328.06v102.5q-1.53,13.67-13,18.1a28.21,28.21,0,0,1-9.61,1.38q-74.87.61-98.1.21-15-.25-20-13A23.29,23.29,0,0,1,370,429q-.37-47.27-.24-94.52,0-9.79,1.57-13.84a18.91,18.91,0,0,1,10.95-11.07,24.28,24.28,0,0,1,8.72-1.44q19.21-.33,39-.16A1.05,1.05,0,0,0,431,307h0V266.24a.93.93,0,0,0-.93-.93l-163.47.13a.62.62,0,0,0-.61.61l-.17,40.74A1.22,1.22,0,0,0,267,308h0q20-.17,39.09.16a23.47,23.47,0,0,1,8.51,1.43,19.14,19.14,0,0,1,10.91,11.11q1.44,3.71,1.5,11.27.34,42.91.23,85.84,0,14.6-1.63,19.2-4.53,13.1-21.65,13.23-35.81.28-96.81-.21a27,27,0,0,1-9.18-1.36q-13-5-13.26-20.43Q184.38,402,185,332q.06-7.58,1.5-11.29a19.18,19.18,0,0,1,10.9-11.11,23.53,23.53,0,0,1,8.52-1.43q19.27-.33,39.32-.16a.87.87,0,0,0,.88-.87h0L246,266.2a.7.7,0,0,0-.7-.7h0l-163.57-.18A.72.72,0,0,0,81,266h0v41.09a.87.87,0,0,0,.87.87h34q9.52,0,13.54,1.5a19.09,19.09,0,0,1,11.3,11.14,21.2,21.2,0,0,1,1.3,7.91q.16,25.68.22,98.45,0,17.13-13.45,21.76-4.32,1.49-14.26,1.49H29.7q-12.33,0-16.72-1.61-11.21-4.09-13-18.2V327.69q1.53-14.08,13.28-18.31Q17.13,308,24.91,308H60.26a1,1,0,0,0,1-1V261.56q0-7.92,1.13-10.47a8.65,8.65,0,0,1,6.85-5.15q1.06-.19,8.06-.19,84.19,0,168-.06A.74.74,0,0,0,246,245h0v-39.6a1.34,1.34,0,0,0-1.35-1.35H205.5q-13.67,0-19.25-13-1.67-3.85-1.66-11.25,0-46.56.36-93.12.08-8.22,1.53-12.06A18.65,18.65,0,0,1,197.67,63.4Q201.29,62,208,62q28.42-.23,87.47-.21,5.6,0,9.47.11a28.45,28.45,0,0,1,9.26,1.47A19.08,19.08,0,0,1,324.34,72q2.27,4,2.64,10.89.24,4.64.27,11.34.17,42.35-.2,84.7-.06,7.67-1.51,11.39a19.09,19.09,0,0,1-10.64,11,25.21,25.21,0,0,1-9,1.6q-19,.56-39.05.27a.81.81,0,0,0-.82.8h0V245a.65.65,0,0,0,.65.65h0q84.86.1,170,.06,6.8,0,9.37,1.43,4.77,2.65,4.75,9.57-.06,25.25-.06,50.58a.67.67,0,0,0,.67.67h29.23q13.67,0,18,1.54Q510.08,313.58,512,328.06ZM217.19,182.58q43.91,1,88.84,1.69a1.45,1.45,0,0,0,1.47-1.44V82.59a1.09,1.09,0,0,0-1.09-1.09H205.52a1,1,0,0,0-1,1h0v99.32a.67.67,0,0,0,.66.66h0Q211.47,182.46,217.19,182.58Zm274,145.11-101.27.12a.42.42,0,0,0-.42.43h0V428.78a.72.72,0,0,0,.72.72h0l101.11-1a.93.93,0,0,0,.92-.93V328.74A1.05,1.05,0,0,0,491.19,327.69Zm-448.37,0q-10.55-.12-22.31,0a.77.77,0,0,0-.76.77v100.7A1.25,1.25,0,0,0,21,430.5h100.4a1.09,1.09,0,0,0,1.09-1.09V329.32a.62.62,0,0,0-.62-.62Q82,328.18,42.82,327.73ZM307.31,429.59l.19-99.86a1,1,0,0,0-1-1l-100.66-1a1.31,1.31,0,0,0-1.32,1.3h0V429.47a1,1,0,0,0,1,1l100.93-.06a.85.85,0,0,0,.85-.85Z"/></svg>