<svg xmlns="http://www.w3.org/2000/svg" xmlns:xlink="http://www.w3.org/1999/xlink" width="500" zoomAndPan="magnify" viewBox="0 0 375 374.999991" height="500" preserveAspectRatio="xMidYMid meet" version="1.0"><defs><clipPath id="94dc8513c7"><path d="M 10.457031 10.457031 L 364.542969 10.457031 L 364.542969 364.542969 L 10.457031 364.542969 Z M 10.457031 10.457031 " clip-rule="nonzero"/></clipPath><clipPath id="0a1b4c1443"><path d="M 187.5 10.457031 C 89.722656 10.457031 10.457031 89.722656 10.457031 187.5 C 10.457031 285.277344 89.722656 364.542969 187.5 364.542969 C 285.277344 364.542969 364.542969 285.277344 364.542969 187.5 C 364.542969 89.722656 285.277344 10.457031 187.5 10.457031 " clip-rule="nonzero"/></clipPath><clipPath id="b8d67d9012"><path d="M 41.828125 43.472656 L 329.976562 43.472656 L 329.976562 331.621094 L 41.828125 331.621094 Z M 41.828125 43.472656 " clip-rule="nonzero"/></clipPath><clipPath id="34f71dedc8"><path d="M 133.414062 53 L 375 53 L 375 238 L 133.414062 238 Z M 133.414062 53 " clip-rule="nonzero"/></clipPath></defs><g clip-path="url(#94dc8513c7)"><g clip-path="url(#0a1b4c1443)"><path fill="#ffffff" d="M 10.457031 10.457031 L 364.542969 10.457031 L 364.542969 364.542969 L 10.457031 364.542969 Z M 10.457031 10.457031 " fill-opacity="1" fill-rule="nonzero"/></g></g><g clip-path="url(#b8d67d9012)"><path fill="#373b61" d="M 185.902344 43.472656 C 106.300781 43.472656 41.828125 107.945312 41.828125 187.546875 C 41.828125 267.148438 106.300781 331.621094 185.902344 331.621094 C 265.503906 331.621094 329.976562 267.148438 329.976562 187.546875 C 329.976562 107.945312 265.503906 43.472656 185.902344 43.472656 Z M 185.902344 302.808594 C 122.21875 302.808594 70.640625 251.226562 70.640625 187.546875 C 70.640625 123.867188 122.21875 72.289062 185.902344 72.289062 C 249.582031 72.289062 301.160156 123.867188 301.160156 187.546875 C 301.160156 251.226562 249.582031 302.808594 185.902344 302.808594 Z M 185.902344 302.808594 " fill-opacity="1" fill-rule="nonzero"/></g><g clip-path="url(#34f71dedc8)"><path fill="#0cc0df" d="M 210.320312 199.039062 L 153.054688 141.675781 L 133.621094 161.140625 L 210.320312 237.96875 L 375.121094 72.894531 L 355.6875 53.429688 Z M 210.320312 199.039062 " fill-opacity="1" fill-rule="nonzero"/></g></svg>