<svg xmlns="http://www.w3.org/2000/svg" xmlns:xlink="http://www.w3.org/1999/xlink" width="960" zoomAndPan="magnify" viewBox="0 0 720 719.999996" height="960" preserveAspectRatio="xMidYMid meet" version="1.0"><path fill="#ffffff" d="M 90 690 L 90 165 C 90 153 94.5 142.5 103.5 133.5 C 112.5 124.5 123 120 135 120 L 495 120 C 507 120 517.625 124.5 526.875 133.5 C 536.125 142.5 540.75 153 540.75 165 L 540.75 690 L 315 594.75 Z M 135 621.75 L 315 544.5 L 495 621.75 L 495 165 L 135 165 Z M 585 622.5 L 585 75 L 174.75 75 L 174.75 30 L 585 30 C 597 30 607.5 34.5 616.5 43.5 C 625.5 52.5 630 63 630 75 L 630 622.5 Z M 135 165 L 495 165 Z M 135 165 " fill-opacity="1" fill-rule="nonzero"/></svg>