<svg xmlns="http://www.w3.org/2000/svg" xmlns:xlink="http://www.w3.org/1999/xlink" width="500" zoomAndPan="magnify" viewBox="0 0 375 374.999991" height="500" preserveAspectRatio="xMidYMid meet" version="1.0"><defs><g/><clipPath id="89ae2ef6e5"><path d="M 5.714844 103.105469 L 155.714844 103.105469 L 155.714844 253.105469 L 5.714844 253.105469 Z M 5.714844 103.105469 " clip-rule="nonzero"/></clipPath><clipPath id="83d33784da"><path d="M 53.40625 108 L 179.40625 108 L 179.40625 204 L 53.40625 204 Z M 53.40625 108 " clip-rule="nonzero"/></clipPath></defs><g clip-path="url(#89ae2ef6e5)"><path fill="#373b61" d="M 80.714844 103.105469 C 39.277344 103.105469 5.714844 136.667969 5.714844 178.105469 C 5.714844 219.542969 39.277344 253.105469 80.714844 253.105469 C 122.152344 253.105469 155.714844 219.542969 155.714844 178.105469 C 155.714844 136.667969 122.152344 103.105469 80.714844 103.105469 Z M 80.714844 238.105469 C 47.5625 238.105469 20.714844 211.257812 20.714844 178.105469 C 20.714844 144.957031 47.5625 118.105469 80.714844 118.105469 C 113.863281 118.105469 140.714844 144.957031 140.714844 178.105469 C 140.714844 211.257812 113.863281 238.105469 80.714844 238.105469 Z M 80.714844 238.105469 " fill-opacity="1" fill-rule="nonzero"/></g><g clip-path="url(#83d33784da)"><path fill="#0cc0df" d="M 93.5 183.738281 L 63.644531 154.011719 L 53.515625 164.097656 L 93.5 203.910156 L 179.40625 118.375 L 169.277344 108.289062 Z M 93.5 183.738281 " fill-opacity="1" fill-rule="nonzero"/></g><g fill="#373b61" fill-opacity="1"><g transform="translate(179.502195, 218.981762)"><g><path d="M 45.796875 -9.09375 C 44.015625 -6.238281 41.625 -3.796875 38.625 -1.765625 C 35.632812 0.265625 31.710938 1.28125 26.859375 1.28125 C 23.929688 1.28125 21.269531 0.78125 18.875 -0.21875 C 16.488281 -1.21875 14.457031 -2.660156 12.78125 -4.546875 C 11.101562 -6.441406 9.800781 -8.707031 8.875 -11.34375 C 7.945312 -13.976562 7.484375 -16.898438 7.484375 -20.109375 L 7.484375 -55.109375 L 21.609375 -55.109375 L 21.609375 -26.53125 C 21.609375 -24.101562 21.75 -21.910156 22.03125 -19.953125 C 22.320312 -17.992188 22.859375 -16.316406 23.640625 -14.921875 C 24.429688 -13.535156 25.503906 -12.445312 26.859375 -11.65625 C 28.210938 -10.875 29.925781 -10.484375 32 -10.484375 C 34.0625 -10.484375 35.894531 -10.925781 37.5 -11.8125 C 39.101562 -12.707031 40.472656 -13.921875 41.609375 -15.453125 C 42.753906 -16.992188 43.613281 -18.816406 44.1875 -20.921875 C 44.757812 -23.023438 45.046875 -25.253906 45.046875 -27.609375 L 45.046875 -55.109375 L 59.28125 -55.109375 L 59.28125 -16.375 C 59.28125 -13.445312 59.296875 -10.554688 59.328125 -7.703125 C 59.367188 -4.847656 59.53125 -2.28125 59.8125 0 L 46.4375 0 C 46.289062 -1.144531 46.179688 -2.484375 46.109375 -4.015625 C 46.046875 -5.546875 46.015625 -7.238281 46.015625 -9.09375 Z M 45.796875 -9.09375 "/></g></g></g><g fill="#373b61" fill-opacity="1"><g transform="translate(264.778023, 218.981762)"><g><path d="M 8.234375 -65.59375 L 8.234375 -79.28125 L 22.578125 -79.28125 L 22.578125 -65.59375 Z M 8.234375 -55.109375 L 22.578125 -55.109375 L 22.578125 0 L 8.234375 0 Z M 8.234375 -55.109375 "/></g></g></g><g fill="#373b61" fill-opacity="1"><g transform="translate(313.783486, 218.981762)"><g><path d="M 49.328125 -43.65625 C 44.472656 -38.019531 40.351562 -33.273438 36.96875 -29.421875 C 33.582031 -25.566406 30.726562 -22.375 28.40625 -19.84375 C 26.09375 -17.3125 24.273438 -15.347656 22.953125 -13.953125 C 21.628906 -12.566406 20.613281 -11.519531 19.90625 -10.8125 L 50.296875 -10.8125 L 50.296875 0 L 3.640625 0 L 3.640625 -11.984375 C 8.773438 -17.835938 13.109375 -22.722656 16.640625 -26.640625 C 20.171875 -30.566406 23.054688 -33.757812 25.296875 -36.21875 C 27.546875 -38.675781 29.273438 -40.53125 30.484375 -41.78125 C 31.703125 -43.03125 32.5625 -43.90625 33.0625 -44.40625 L 4.59375 -44.40625 L 4.59375 -55.109375 L 49.328125 -55.109375 Z M 49.328125 -43.65625 "/></g></g></g></svg>