<svg xmlns="http://www.w3.org/2000/svg" xmlns:xlink="http://www.w3.org/1999/xlink" width="960" zoomAndPan="magnify" viewBox="0 0 720 719.999996" height="960" preserveAspectRatio="xMidYMid meet" version="1.0"><path fill="#ffffff" d="M 166.5 528.75 C 198 506.75 229.25 489.875 260.25 478.125 C 291.25 466.375 324.5 460.5 360 460.5 C 395.5 460.5 428.875 466.375 460.125 478.125 C 491.375 489.875 522.75 506.75 554.25 528.75 C 576.25 501.75 591.875 474.5 601.125 447 C 610.375 419.5 615 390.5 615 360 C 615 287.5 590.625 226.875 541.875 178.125 C 493.125 129.375 432.5 105 360 105 C 287.5 105 226.875 129.375 178.125 178.125 C 129.375 226.875 105 287.5 105 360 C 105 390.5 109.75 419.5 119.25 447 C 128.75 474.5 144.5 501.75 166.5 528.75 Z M 359.859375 382.5 C 330.953125 382.5 306.625 372.578125 286.875 352.734375 C 267.125 332.890625 257.25 308.515625 257.25 279.609375 C 257.25 250.703125 267.171875 226.375 287.015625 206.625 C 306.859375 186.875 331.234375 177 360.140625 177 C 389.046875 177 413.375 186.921875 433.125 206.765625 C 452.875 226.609375 462.75 250.984375 462.75 279.890625 C 462.75 308.796875 452.828125 333.125 432.984375 352.875 C 413.140625 372.625 388.765625 382.5 359.859375 382.5 Z M 360.351562 660 C 319.117188 660 280.25 652.125 243.75 636.375 C 207.25 620.625 175.375 599.125 148.125 571.875 C 120.875 544.625 99.375 512.808594 83.625 476.425781 C 67.875 440.042969 60 401.167969 60 359.800781 C 60 318.433594 67.875 279.625 83.625 243.375 C 99.375 207.125 120.875 175.375 148.125 148.125 C 175.375 120.875 207.191406 99.375 243.574219 83.625 C 279.957031 67.875 318.832031 60 360.199219 60 C 401.566406 60 440.375 67.875 476.625 83.625 C 512.875 99.375 544.625 120.875 571.875 148.125 C 599.125 175.375 620.625 207.132812 636.375 243.398438 C 652.125 279.664062 660 318.414062 660 359.648438 C 660 400.882812 652.125 439.75 636.375 476.25 C 620.625 512.75 599.125 544.625 571.875 571.875 C 544.625 599.125 512.867188 620.625 476.601562 636.375 C 440.335938 652.125 401.585938 660 360.351562 660 Z M 360 615 C 387.5 615 414.375 611 440.625 603 C 466.875 595 492.75 581 518.25 561 C 492.75 543 466.75 529.25 440.25 519.75 C 413.75 510.25 387 505.5 360 505.5 C 333 505.5 306.25 510.25 279.75 519.75 C 253.25 529.25 227.25 543 201.75 561 C 227.25 581 253.125 595 279.375 603 C 305.625 611 332.5 615 360 615 Z M 360 337.5 C 377 337.5 390.875 332.125 401.625 321.375 C 412.375 310.625 417.75 296.75 417.75 279.75 C 417.75 262.75 412.375 248.875 401.625 238.125 C 390.875 227.375 377 222 360 222 C 343 222 329.125 227.375 318.375 238.125 C 307.625 248.875 302.25 262.75 302.25 279.75 C 302.25 296.75 307.625 310.625 318.375 321.375 C 329.125 332.125 343 337.5 360 337.5 Z M 360 279.75 Z M 360 560.25 Z M 360 560.25 " fill-opacity="1" fill-rule="nonzero"/></svg>