<svg id="Layer_1" data-name="Layer 1" xmlns="http://www.w3.org/2000/svg" viewBox="0 0 48 48"><defs><style>.cls-1{fill:#fff;}</style></defs><title>question</title><path class="cls-1" d="M27.15,31a2.08,2.08,0,1,0-1.44-.61A2,2,0,0,0,27.15,31ZM25.9,24.7h2.35a6.42,6.42,0,0,1,.43-2.15A7.44,7.44,0,0,1,30.3,20.6a10.1,10.1,0,0,0,1.88-2.27,4.74,4.74,0,0,0,.52-2.28,4.87,4.87,0,0,0-1.57-3.75A5.85,5.85,0,0,0,27,10.85a5.9,5.9,0,0,0-3.4,1,6,6,0,0,0-2.2,2.88l2.25.95A4.88,4.88,0,0,1,25,13.8a3.09,3.09,0,0,1,2-.65,3.44,3.44,0,0,1,2.42.85,2.79,2.79,0,0,1,.93,2.15,3.33,3.33,0,0,1-.45,1.75,6,6,0,0,1-1.6,1.6,8.62,8.62,0,0,0-2,2.32A7.46,7.46,0,0,0,25.9,24.7ZM13,38a3.08,3.08,0,0,1-3-3V7a2.88,2.88,0,0,1,.9-2.1A2.88,2.88,0,0,1,13,4H41a2.88,2.88,0,0,1,2.1.9A2.88,2.88,0,0,1,44,7V35a3.08,3.08,0,0,1-3,3Zm0-3H41V7H13ZM7,44a2.88,2.88,0,0,1-2.1-.9A2.88,2.88,0,0,1,4,41V10H7V41H38v3ZM13,7V7Z"/></svg>