<svg xmlns="http://www.w3.org/2000/svg" xmlns:xlink="http://www.w3.org/1999/xlink" width="500" zoomAndPan="magnify" viewBox="0 0 375 374.999991" height="500" preserveAspectRatio="xMidYMid meet" version="1.0"><defs><clipPath id="8d1d0516ae"><path d="M 100.753906 112.5 L 250.753906 112.5 L 250.753906 262.5 L 100.753906 262.5 Z M 100.753906 112.5 " clip-rule="nonzero"/></clipPath><clipPath id="f538af63c0"><path d="M 148.445312 117.167969 L 274.445312 117.167969 L 274.445312 213.917969 L 148.445312 213.917969 Z M 148.445312 117.167969 " clip-rule="nonzero"/></clipPath></defs><g clip-path="url(#8d1d0516ae)"><path fill="#ffffff" d="M 175.753906 112.5 C 134.316406 112.5 100.753906 146.0625 100.753906 187.5 C 100.753906 228.9375 134.316406 262.5 175.753906 262.5 C 217.191406 262.5 250.753906 228.9375 250.753906 187.5 C 250.753906 146.0625 217.191406 112.5 175.753906 112.5 Z M 175.753906 247.5 C 142.601562 247.5 115.753906 220.648438 115.753906 187.5 C 115.753906 154.351562 142.601562 127.5 175.753906 127.5 C 208.902344 127.5 235.753906 154.351562 235.753906 187.5 C 235.753906 220.648438 208.902344 247.5 175.753906 247.5 Z M 175.753906 247.5 " fill-opacity="1" fill-rule="nonzero"/></g><g clip-path="url(#f538af63c0)"><path fill="#ffffff" d="M 188.535156 193.128906 L 158.683594 163.40625 L 148.554688 173.492188 L 188.535156 213.300781 L 274.445312 127.765625 L 264.316406 117.679688 Z M 188.535156 193.128906 " fill-opacity="1" fill-rule="nonzero"/></g></svg>