<svg id="Layer_1" data-name="Layer 1" xmlns="http://www.w3.org/2000/svg" viewBox="0 0 48 48"><defs><style>.cls-1{fill:#fff;}</style></defs><title>users</title><path class="cls-1" d="M2.79,38.72V34a5.82,5.82,0,0,1,.9-3.17,5.49,5.49,0,0,1,2.5-2.13,40.43,40.43,0,0,1,6.57-2.3,26.19,26.19,0,0,1,12,0,41.29,41.29,0,0,1,6.55,2.3A5.74,5.74,0,0,1,34.79,34v4.7Zm35,0V34a8.12,8.12,0,0,0-1.6-5.17A11.85,11.85,0,0,0,32,25.57a49.77,49.77,0,0,1,6.5,1.18,23.62,23.62,0,0,1,4.95,1.77A7.91,7.91,0,0,1,46,30.87,5.54,5.54,0,0,1,47,34v4.7Zm-19-16a7.19,7.19,0,0,1-7.5-7.5,7.19,7.19,0,0,1,7.5-7.5,7.19,7.19,0,0,1,7.5,7.5,7.19,7.19,0,0,1-7.5,7.5Zm18-7.5a7.19,7.19,0,0,1-7.5,7.5,11.13,11.13,0,0,1-1.23-.07,4.85,4.85,0,0,1-1.22-.28,8.17,8.17,0,0,0,1.82-3.07,12.48,12.48,0,0,0,.63-4.08,11.52,11.52,0,0,0-.63-4A10.75,10.75,0,0,0,26.84,8a10.88,10.88,0,0,1,1.22-.25,9.51,9.51,0,0,1,1.23-.1,7.19,7.19,0,0,1,7.5,7.5Zm-31,20.55h26V34a2.85,2.85,0,0,0-.48-1.55,2.65,2.65,0,0,0-1.17-1,34.66,34.66,0,0,0-6.05-2.15,24.64,24.64,0,0,0-5.3-.55,25,25,0,0,0-5.33.55,34.22,34.22,0,0,0-6.07,2.15,2.46,2.46,0,0,0-1.15,1A3,3,0,0,0,5.79,34Zm13-16a4.36,4.36,0,0,0,4.5-4.5,4.38,4.38,0,0,0-4.5-4.5,4.36,4.36,0,0,0-4.5,4.5,4.35,4.35,0,0,0,4.5,4.5Z"/></svg>