<svg xmlns="http://www.w3.org/2000/svg" xmlns:xlink="http://www.w3.org/1999/xlink" width="100" zoomAndPan="magnify" viewBox="0 0 75 74.999997" height="100" preserveAspectRatio="xMidYMid meet" version="1.0"><path fill="#00b894" d="M 32.890625 51.71875 L 55 29.609375 L 51.40625 26.09375 L 32.890625 44.609375 L 23.515625 35.234375 L 20 38.75 Z M 37.5 68.75 C 33.230469 68.75 29.191406 67.929688 25.390625 66.289062 C 21.589844 64.648438 18.269531 62.410156 15.429688 59.570312 C 12.589844 56.730469 10.351562 53.410156 8.710938 49.609375 C 7.070312 45.808594 6.25 41.769531 6.25 37.5 C 6.25 33.175781 7.070312 29.113281 8.710938 25.3125 C 10.351562 21.511719 12.589844 18.203125 15.429688 15.390625 C 18.269531 12.578125 21.589844 10.351562 25.390625 8.710938 C 29.191406 7.070312 33.230469 6.25 37.5 6.25 C 41.824219 6.25 45.886719 7.070312 49.6875 8.710938 C 53.488281 10.351562 56.796875 12.578125 59.609375 15.390625 C 62.421875 18.203125 64.648438 21.511719 66.289062 25.3125 C 67.929688 29.113281 68.75 33.175781 68.75 37.5 C 68.75 41.769531 67.929688 45.808594 66.289062 49.609375 C 64.648438 53.410156 62.421875 56.730469 59.609375 59.570312 C 56.796875 62.410156 53.488281 64.648438 49.6875 66.289062 C 45.886719 67.929688 41.824219 68.75 37.5 68.75 Z M 37.5 64.0625 C 44.894531 64.0625 51.171875 61.472656 56.328125 56.289062 C 61.484375 51.105469 64.0625 44.84375 64.0625 37.5 C 64.0625 30.105469 61.484375 23.828125 56.328125 18.671875 C 51.171875 13.515625 44.894531 10.9375 37.5 10.9375 C 30.15625 10.9375 23.894531 13.515625 18.710938 18.671875 C 13.527344 23.828125 10.9375 30.105469 10.9375 37.5 C 10.9375 44.84375 13.527344 51.105469 18.710938 56.289062 C 23.894531 61.472656 30.15625 64.0625 37.5 64.0625 Z M 37.5 37.5 Z M 37.5 37.5 " fill-opacity="1" fill-rule="nonzero"/></svg>